<svg version="1.1" viewBox="0.0 0.0 960.0 720.0" fill="none" stroke="none" stroke-linecap="square" stroke-miterlimit="10" xmlns:xlink="http://www.w3.org/1999/xlink" xmlns="http://www.w3.org/2000/svg"><clipPath id="p.0"><path d="m0 0l960.0 0l0 720.0l-960.0 0l0 -720.0z" clip-rule="nonzero"/></clipPath><g clip-path="url(#p.0)"><path fill="#000000" fill-opacity="0.0" d="m0 0l960.0 0l0 720.0l-960.0 0z" fill-rule="evenodd"/><path fill="#34d399" d="m117.14757 221.16324l0 22.836761l21.29889 4.7951202l0 220.2158l-19.988838 3.6562805l0 22.117493l97.87345 0l0 -22.117493l-39.724106 -3.6562805l0 -96.14212l38.709885 1.4984741l5.15567 33.14627l16.396774 0l0 -93.56476l-16.65033 0l-4.902115 32.427002l-38.709885 1.0788879l0 -104.17395l56.078613 4.015915l9.635208 40.518753l20.749527 0l-2.5778503 -66.65216z" fill-rule="evenodd"/><path fill="#34d399" d="m350.82538 308.79404c10.564911 0 18.18573 7.312561 22.862488 21.937653c4.6767273 14.585175 7.015106 35.883484 7.015106 63.89496c0 53.505524 -9.776062 80.2583 -29.328217 80.2583c-10.564941 0 -18.31253 -7.292572 -23.242859 -21.877716c-4.930298 -14.625122 -7.395447 -35.92343 -7.395447 -63.89496c0 -53.5455 10.029633 -80.31824 30.088928 -80.31824zm1.5635986 -23.91565c-12.818787 0 -24.679657 4.115814 -35.582672 12.347412c-10.902985 8.231628 -19.60849 20.459167 -26.116486 36.68268c-6.479828 16.183533 -9.719727 35.803528 -9.719727 58.860077c0 32.64676 5.9727173 58.500427 17.918121 77.561035c11.945404 19.02066 28.736572 28.530945 50.373535 28.530945c12.9878235 0 24.89096 -3.9959106 35.709442 -11.987793c10.818481 -7.991852 19.467651 -20.139496 25.94748 -36.4429c6.507965 -16.343353 9.761963 -36.183136 9.761963 -59.51941c0 -32.64676 -5.93042 -58.48047 -17.79132 -77.5011c-11.860901 -19.02063 -28.694336 -28.530945 -50.500336 -28.530945z" fill-rule="evenodd"/><path fill="#34d399" d="m540.1308 284.8784c-7.9729614 0 -15.382507 2.7572021 -22.228577 8.271576c-6.8179016 5.514374 -12.480713 11.907867 -16.988403 19.180481c-4.5076904 7.2326355 -7.367279 13.3064575 -8.578735 18.221436l-0.76065063 0l0.76065063 -29.84961l0 -8.091766l-6.4657288 -7.3724976l-0.8029175 0l-40.23123 7.732147l0 25.414124l16.608063 6.6532288l0 145.05234l-17.15744 2.9969482l0 21.697906l83.8855 0l0 -21.697906l-30.131165 -3.356598l0 -120.77704c9.353485 -9.5902405 20.355103 -14.385345 33.00482 -14.385345c7.437683 0 13.748474 2.577362 18.932312 7.7321167l0 -55.203796c-2.7609253 -1.4785156 -6.043091 -2.217743 -9.846497 -2.217743z" fill-rule="evenodd"/><path fill="#34d399" d="m559.8586 221.16324l0 22.836761l17.115173 4.7951202l0 132.94466c0 39.9993 6.409424 69.32944 19.22815 87.99042c12.818787 18.66101 32.37097 27.991516 58.656494 27.991516c22.172241 0 39.794495 -9.190643 52.866882 -27.57193c13.072327 -18.421265 19.60846 -46.79239 19.60846 -85.11337l0 -136.24129l17.622314 -4.7951202l0 -22.836761l-64.91089 0l0 22.836761l22.355347 5.1547546l0 138.81866c0 27.252258 -3.465271 48.430725 -10.395874 63.53534c-6.930603 15.104614 -17.580017 22.656921 -31.948303 22.656921c-29.243713 0 -43.8656 -29.210266 -43.8656 -87.6308l0 -137.38013l22.05957 -5.1547546l0 -22.836761z" fill-rule="evenodd"/><path fill="#34d399" d="m759.7888 221.16324l0 22.836761l22.05951 4.7951202l0 220.2158l-22.05951 3.6562805l0 22.117493l83.08252 0l0 -21.697906l-22.862488 -4.0758667l0 -220.2158l22.862488 -4.7951202l0 -22.836761z" fill-rule="evenodd"/><path stroke="#d3346e" stroke-width="4.0" stroke-linejoin="round" stroke-linecap="butt" d="m117.14757 221.16324l0 22.836761l21.29889 4.7951202l0 220.2158l-19.988838 3.6562805l0 22.117493l97.87345 0l0 -22.117493l-39.724106 -3.6562805l0 -96.14212l38.709885 1.4984741l5.15567 33.14627l16.396774 0l0 -93.56476l-16.65033 0l-4.902115 32.427002l-38.709885 1.0788879l0 -104.17395l56.078613 4.015915l9.635208 40.518753l20.749527 0l-2.5778503 -66.65216z" fill-rule="evenodd"/><path stroke="#d3346e" stroke-width="4.0" stroke-linejoin="round" stroke-linecap="butt" d="m350.82538 308.79404c10.564911 0 18.18573 7.312561 22.862488 21.937653c4.6767273 14.585175 7.015106 35.883484 7.015106 63.89496c0 53.505524 -9.776062 80.2583 -29.328217 80.2583c-10.564941 0 -18.31253 -7.292572 -23.242859 -21.877716c-4.930298 -14.625122 -7.395447 -35.92343 -7.395447 -63.89496c0 -53.5455 10.029633 -80.31824 30.088928 -80.31824zm1.5635986 -23.91565c-12.818787 0 -24.679657 4.115814 -35.582672 12.347412c-10.902985 8.231628 -19.60849 20.459167 -26.116486 36.68268c-6.479828 16.183533 -9.719727 35.803528 -9.719727 58.860077c0 32.64676 5.9727173 58.500427 17.918121 77.561035c11.945404 19.02066 28.736572 28.530945 50.373535 28.530945c12.9878235 0 24.89096 -3.9959106 35.709442 -11.987793c10.818481 -7.991852 19.467651 -20.139496 25.94748 -36.4429c6.507965 -16.343353 9.761963 -36.183136 9.761963 -59.51941c0 -32.64676 -5.93042 -58.48047 -17.79132 -77.5011c-11.860901 -19.02063 -28.694336 -28.530945 -50.500336 -28.530945z" fill-rule="evenodd"/><path stroke="#d3346e" stroke-width="4.0" stroke-linejoin="round" stroke-linecap="butt" d="m540.1308 284.8784c-7.9729614 0 -15.382507 2.7572021 -22.228577 8.271576c-6.8179016 5.514374 -12.480713 11.907867 -16.988403 19.180481c-4.5076904 7.2326355 -7.367279 13.3064575 -8.578735 18.221436l-0.76065063 0l0.76065063 -29.84961l0 -8.091766l-6.4657288 -7.3724976l-0.8029175 0l-40.23123 7.732147l0 25.414124l16.608063 6.6532288l0 145.05234l-17.15744 2.9969482l0 21.697906l83.8855 0l0 -21.697906l-30.131165 -3.356598l0 -120.77704c9.353485 -9.5902405 20.355103 -14.385345 33.00482 -14.385345c7.437683 0 13.748474 2.577362 18.932312 7.7321167l0 -55.203796c-2.7609253 -1.4785156 -6.043091 -2.217743 -9.846497 -2.217743z" fill-rule="evenodd"/><path stroke="#d3346e" stroke-width="4.0" stroke-linejoin="round" stroke-linecap="butt" d="m559.8586 221.16324l0 22.836761l17.115173 4.7951202l0 132.94466c0 39.9993 6.409424 69.32944 19.22815 87.99042c12.818787 18.66101 32.37097 27.991516 58.656494 27.991516c22.172241 0 39.794495 -9.190643 52.866882 -27.57193c13.072327 -18.421265 19.60846 -46.79239 19.60846 -85.11337l0 -136.24129l17.622314 -4.7951202l0 -22.836761l-64.91089 0l0 22.836761l22.355347 5.1547546l0 138.81866c0 27.252258 -3.465271 48.430725 -10.395874 63.53534c-6.930603 15.104614 -17.580017 22.656921 -31.948303 22.656921c-29.243713 0 -43.8656 -29.210266 -43.8656 -87.6308l0 -137.38013l22.05957 -5.1547546l0 -22.836761z" fill-rule="evenodd"/><path stroke="#d3346e" stroke-width="4.0" stroke-linejoin="round" stroke-linecap="butt" d="m759.7888 221.16324l0 22.836761l22.05951 4.7951202l0 220.2158l-22.05951 3.6562805l0 22.117493l83.08252 0l0 -21.697906l-22.862488 -4.0758667l0 -220.2158l22.862488 -4.7951202l0 -22.836761z" fill-rule="evenodd"/></g></svg>